<svg width="140" height="128" viewBox="0 0 140 128" fill="none" xmlns="http://www.w3.org/2000/svg">
<path d="M13.3807 0.28772C6.30443 0.28772 0.630676 5.96147 0.630676 13.0377V89.5377C0.630676 96.614 6.36818 102.288 13.3807 102.288H64.8907C64.5684 100.178 64.398 98.0472 64.3807 95.9127C64.3807 84.0774 69.0822 72.7269 77.451 64.3581C85.8199 55.9893 97.1704 51.2877 109.006 51.2877C115.628 51.3167 122.161 52.8193 128.131 55.6865V25.7877C128.131 18.7115 122.393 13.0377 115.381 13.0377H64.3807L51.6307 0.28772H13.3807Z" fill="black"/>
<g clip-path="url(#clip0_19_19)">
<path d="M86.3333 64C83.95 64 82 65.95 82 68.3333V77H86.3333V68.3333H95V64H86.3333ZM121 64V68.3333H129.667V77H134V68.3333C134 65.95 132.05 64 129.667 64H121ZM108 70.5C98.4667 70.5 90.6667 78.3 90.6667 87.8333C90.6667 93.25 93.2667 98.2333 97.1667 101.267V109.5H101.5V103H105.833V109.5H110.167V103H114.5V109.5H118.833V101.267C122.733 98.0167 125.333 93.25 125.333 87.8333C125.333 78.3 117.533 70.5 108 70.5ZM99.3333 94.3333C96.95 94.3333 95 92.3833 95 90C95 87.6167 96.95 85.6667 99.3333 85.6667C101.717 85.6667 103.667 87.6167 103.667 90C103.667 92.3833 101.717 94.3333 99.3333 94.3333ZM104.75 98.6667L108 92.1667L111.25 98.6667H104.75ZM116.667 94.3333C114.283 94.3333 112.333 92.3833 112.333 90C112.333 87.6167 114.283 85.6667 116.667 85.6667C119.05 85.6667 121 87.6167 121 90C121 92.3833 119.05 94.3333 116.667 94.3333ZM82 103V111.667C82 114.05 83.95 116 86.3333 116H95V111.667H86.3333V103H82ZM129.667 103V111.667H121V116H129.667C132.05 116 134 114.05 134 111.667V103H129.667Z" fill="#3DD83D"/>
</g>
<defs>
<clipPath id="clip0_19_19">
<rect width="52" height="52" fill="white" transform="translate(82 64)"/>
</clipPath>
</defs>
</svg>
