<svg width="154" height="154" viewBox="0 0 154 154" fill="none" xmlns="http://www.w3.org/2000/svg">
<g clip-path="url(#clip0_19_11)">
<path d="M26.3807 26.2877C19.3044 26.2877 13.6307 31.9615 13.6307 39.0377V115.538C13.6307 122.614 19.3682 128.288 26.3807 128.288H77.8907C77.5684 126.178 77.398 124.047 77.3807 121.913C77.3807 110.077 82.0822 98.7269 90.451 90.3581C98.8199 81.9893 110.17 77.2877 122.006 77.2877C128.628 77.3167 135.161 78.8193 141.131 81.6865V51.7877C141.131 44.7115 135.393 39.0377 128.381 39.0377H77.3807L64.6307 26.2877H26.3807Z" fill="black"/>
<path d="M125.333 124.417V128.583H96.1667V124.417C96.1667 124.417 96.1667 116.083 110.75 116.083C125.333 116.083 125.333 124.417 125.333 124.417ZM118.042 104.625C118.042 103.183 117.614 101.773 116.813 100.574C116.012 99.3749 114.873 98.4403 113.54 97.8884C112.208 97.3365 110.742 97.1921 109.327 97.4735C107.913 97.7548 106.614 98.4493 105.594 99.469C104.574 100.489 103.88 101.788 103.598 103.202C103.317 104.617 103.462 106.083 104.013 107.415C104.565 108.748 105.5 109.887 106.699 110.688C107.898 111.489 109.308 111.917 110.75 111.917C112.684 111.917 114.539 111.148 115.906 109.781C117.273 108.414 118.042 106.559 118.042 104.625ZM125.208 116.083C126.489 117.075 127.537 118.334 128.279 119.774C129.02 121.214 129.437 122.798 129.5 124.417V128.583H137.833V124.417C137.833 124.417 137.833 116.854 125.208 116.083ZM123.25 97.3334C121.816 97.3254 120.414 97.7541 119.229 98.5625C120.495 100.331 121.175 102.451 121.175 104.625C121.175 106.799 120.495 108.919 119.229 110.688C120.414 111.496 121.816 111.925 123.25 111.917C125.184 111.917 127.039 111.148 128.406 109.781C129.773 108.414 130.542 106.559 130.542 104.625C130.542 102.691 129.773 100.836 128.406 99.469C127.039 98.1016 125.184 97.3334 123.25 97.3334Z" fill="#FF9D00"/>
</g>
<defs>
<clipPath id="clip0_19_11">
<rect width="153" height="153" fill="white" transform="translate(0.880676 0.78772)"/>
</clipPath>
</defs>
</svg>
