<svg width="140" height="128" viewBox="0 0 140 128" fill="none" xmlns="http://www.w3.org/2000/svg">
<path d="M13.3807 0.28772C6.30443 0.28772 0.630676 5.96147 0.630676 13.0377V89.5377C0.630676 96.614 6.36818 102.288 13.3807 102.288H64.8907C64.5684 100.178 64.398 98.0472 64.3807 95.9127C64.3807 84.0774 69.0822 72.7269 77.451 64.3581C85.8199 55.9893 97.1704 51.2877 109.006 51.2877C115.628 51.3167 122.161 52.8193 128.131 55.6865V25.7877C128.131 18.7115 122.393 13.0377 115.381 13.0377H64.3807L51.6307 0.28772H13.3807Z" fill="black"/>
<path d="M118.75 79.75C116.825 79.75 115.25 78.175 115.25 76.25C115.25 74.325 118.75 69.25 118.75 69.25C118.75 69.25 122.25 74.325 122.25 76.25C122.25 78.175 120.675 79.75 118.75 79.75ZM112.625 76.25C112.625 74.9725 113.343 73.2575 114.235 71.595C111.19 69.04 107.27 67.5 103 67.5C93.3225 67.5 85.5 75.375 85.5 85C85.5 94.625 93.3225 102.5 103 102.5C112.625 102.5 120.5 94.625 120.5 85C120.5 84.0375 120.395 83.0925 120.255 82.165C119.765 82.2875 119.275 82.375 118.75 82.375C115.373 82.375 112.625 79.6275 112.625 76.25ZM109.335 76.915L111.19 78.77L109.335 80.625L111.19 82.48L109.335 84.335L105.625 80.625L109.335 76.915ZM94.81 78.77L96.665 76.915L100.375 80.625L96.665 84.335L94.81 82.48L96.665 80.625L94.81 78.77ZM109.02 93.75C107.812 91.6675 105.573 90.25 103 90.25C100.427 90.25 98.1875 91.6675 96.98 93.75H94.04C94.565 92.42 95.37 91.2475 96.385 90.25L91.17 87.275C90.3825 87.73 89.4025 87.765 88.5625 87.275C87.3025 86.5575 86.8825 84.9475 87.6 83.6875C88.3175 82.4275 89.9275 82.0075 91.1875 82.725C92.0275 83.25 92.5 84.125 92.5 85L98.7475 88.605C100.025 87.975 101.46 87.625 103 87.625C107.077 87.625 110.56 90.1625 111.96 93.75H109.02Z" fill="#FF041D"/>
</svg>
