<svg width="140" height="128" viewBox="0 0 140 128" fill="none" xmlns="http://www.w3.org/2000/svg">
<path d="M13.3807 0.28772C6.30443 0.28772 0.630676 5.96147 0.630676 13.0377V89.5377C0.630676 96.614 6.36818 102.288 13.3807 102.288H64.8907C64.5684 100.178 64.398 98.0472 64.3807 95.9127C64.3807 84.0774 69.0822 72.7269 77.451 64.3581C85.8199 55.9893 97.1704 51.2877 109.006 51.2877C115.628 51.3167 122.161 52.8193 128.131 55.6865V25.7877C128.131 18.7115 122.393 13.0377 115.381 13.0377H64.3807L51.6307 0.28772H13.3807Z" fill="black"/>
<path d="M115.208 88.5C115.711 89.2875 116.573 89.8125 117.531 89.8125C119.108 89.8125 120.375 88.4475 120.375 86.75C120.375 85.0525 119.108 83.6875 117.531 83.6875C116.573 83.6875 115.711 84.2125 115.208 85H113.875C113.875 82.2525 113.063 79.75 111.6 77.6675L113.778 75.3225C114.688 75.4975 115.614 75.2175 116.313 74.5C117.401 73.2925 117.401 71.35 116.313 70.125C115.191 68.9525 113.388 68.9525 112.25 70.125C111.584 70.8775 111.324 71.875 111.486 72.855L109.309 75.2C107.814 73.9925 106.059 73.1875 104.125 72.89V70.44C104.856 69.8975 105.344 68.97 105.344 67.9375C105.344 66.24 104.076 64.875 102.5 64.875C100.924 64.875 99.6563 66.24 99.6563 67.9375C99.6563 68.97 100.144 69.8975 100.875 70.44V72.89C99.4125 73.1175 98.0475 73.625 96.8125 74.395L95.0088 71.6125C95.3175 70.7025 95.2363 69.6525 94.6838 68.8125C93.7738 67.43 92.0025 67.08 90.7188 68.06C89.435 69.0225 89.11 70.93 90.02 72.3125C90.5725 73.17 91.45 73.625 92.3438 73.625L94.2613 76.565C93.5625 77.3175 93.01 78.1575 92.5388 79.085C91.5313 78.665 90.3125 78.875 89.5 79.75C88.4113 80.975 88.4113 82.9 89.5 84.125C89.9713 84.5975 90.54 84.8775 91.125 85C91.125 85.945 91.2388 86.855 91.4175 87.73L89.2888 88.3425C88.6063 87.73 87.6638 87.4675 86.7213 87.73C85.21 88.1675 84.313 89.8475 84.7225 91.4925C85.1288 93.12 86.705 94.0825 88.2163 93.645C89.1425 93.365 89.8413 92.63 90.1338 91.72L92.5875 91.0025C93.3188 92.385 94.2938 93.61 95.4313 94.625L93.6438 98.125C92.75 98.265 91.9375 98.8075 91.4663 99.735C90.7188 101.223 91.2388 103.078 92.62 103.883C94.0013 104.688 95.7238 104.128 96.4713 102.64C96.9263 101.73 96.91 100.68 96.5038 99.8225L98.2425 96.375C99.5588 96.935 100.989 97.25 102.5 97.25C102.598 97.25 102.695 97.25 102.793 97.25C102.581 97.705 102.5 98.23 102.5 98.79C102.63 100.488 103.995 101.748 105.555 101.625C107.115 101.503 108.301 100.015 108.188 98.335C108.123 97.46 107.716 96.69 107.131 96.1825C107.895 95.815 108.626 95.3425 109.309 94.8L113.111 98.895C112.949 99.875 113.209 100.873 113.875 101.625C115.013 102.798 116.8 102.798 117.938 101.625C119.075 100.453 119.026 98.475 117.938 97.25C117.239 96.5325 116.313 96.2525 115.403 96.4275L111.6 92.3325C112.396 91.195 113.014 89.9 113.404 88.5H115.208ZM100.063 85C98.7138 85 97.625 83.8275 97.625 82.375C97.625 80.9225 98.7138 79.75 100.063 79.75C101.411 79.75 102.5 80.9225 102.5 82.375C102.5 83.8275 101.411 85 100.063 85ZM105.75 90.25C104.856 90.25 104.125 89.4625 104.125 88.5C104.125 87.5375 104.856 86.75 105.75 86.75C106.644 86.75 107.375 87.5375 107.375 88.5C107.375 89.4625 106.644 90.25 105.75 90.25Z" fill="#9A58FA"/>
</svg>
