<svg width="140" height="128" viewBox="0 0 140 128" fill="none" xmlns="http://www.w3.org/2000/svg">
<path d="M13.3807 0.28772C6.30443 0.28772 0.630676 5.96147 0.630676 13.0377V89.5377C0.630676 96.614 6.36818 102.288 13.3807 102.288H64.8907C64.5684 100.178 64.398 98.0472 64.3807 95.9127C64.3807 84.0774 69.0822 72.7269 77.451 64.3581C85.8199 55.9893 97.1704 51.2877 109.006 51.2877C115.628 51.3167 122.161 52.8193 128.131 55.6865V25.7877C128.131 18.7115 122.393 13.0377 115.381 13.0377H64.3807L51.6307 0.28772H13.3807Z" fill="black"/>
<path d="M117.25 78C118.23 78 119 78.7525 119 79.75C119 80.2141 118.816 80.6592 118.487 80.9874C118.159 81.3156 117.714 81.5 117.25 81.5C116.253 81.5 115.5 80.7125 115.5 79.75C115.5 78.7525 116.253 78 117.25 78ZM87.5 67.5V83.25C87.5 88.43 91.3325 92.875 96.495 93.5925C97.58 98.86 102.235 102.5 107.625 102.5C109.119 102.5 110.598 102.206 111.978 101.634C113.358 101.062 114.612 100.225 115.668 99.1683C116.725 98.1121 117.562 96.8581 118.134 95.478C118.706 94.0979 119 92.6188 119 91.125V84.6675C121.03 83.9325 122.5 82.0075 122.5 79.75C122.5 78.3576 121.947 77.0223 120.962 76.0377C119.978 75.0531 118.642 74.5 117.25 74.5C115.858 74.5 114.522 75.0531 113.538 76.0377C112.553 77.0223 112 78.3576 112 79.75C112 82.0075 113.47 83.95 115.5 84.6675V90.9675C115.5 95.3425 112 98.8425 107.625 98.8425C104.125 98.8425 101.185 96.725 100.135 93.575C105 92.525 108.5 88.15 108.5 83.25V67.5H101.5V72.75H105V83.25C105 85.1065 104.263 86.887 102.95 88.1998C101.637 89.5125 99.8565 90.25 98 90.25C96.1435 90.25 94.363 89.5125 93.0503 88.1998C91.7375 86.887 91 85.1065 91 83.25V72.75H94.5V67.5H87.5Z" fill="#36F2FF"/>
</svg>
