<svg width="231" height="231" viewBox="0 0 231 231" fill="none" xmlns="http://www.w3.org/2000/svg">
<path d="M218 126.58C218 158.944 203.075 187.573 179.444 205L173.225 198.776L147.106 172.636L164.519 155.21L179.444 170.147C185.663 161.434 190.637 150.231 191.881 139.028H168.25V114.133H191.881C189.394 102.93 185.663 92.972 179.444 83.014L164.519 97.951L147.106 80.5245L162.031 65.5874C153.325 59.3636 142.131 54.3846 130.938 53.1399V76.7902H106.063V53.1399C94.8688 55.6294 84.9188 59.3636 74.9688 65.5874L112.281 102.93C114.769 102.93 116.013 101.685 118.5 101.685C132.306 101.685 143.375 112.888 143.375 126.58C143.375 140.273 132.306 151.476 118.5 151.476C104.694 151.476 93.625 140.397 93.625 126.58C93.625 124.091 93.625 122.846 94.8688 120.357L57.5563 83.014C51.3375 91.7273 46.3625 102.93 45.1188 114.133H68.75V139.028H45.1188C47.6063 150.231 51.3375 160.189 57.5563 170.147L72.4813 155.21L89.8938 172.636L57.5563 205C33.925 187.573 19 158.944 19 126.58C19 71.5622 63.5263 27 118.5 27C173.474 27 218 71.5622 218 126.58Z" fill="black"/>
</svg>
