<svg width="207" height="207" viewBox="0 0 207 207" fill="none" xmlns="http://www.w3.org/2000/svg">
<g clip-path="url(#clip0_1_18)">
<path d="M35.2058 35C25.1016 35 17 42.921 17 52.8V159.6C17 169.479 25.1926 177.4 35.2058 177.4H108.757C108.297 174.454 108.054 171.48 108.029 168.5C108.029 151.977 114.742 136.131 126.692 124.447C138.642 112.764 154.849 106.2 171.749 106.2C181.205 106.24 190.534 108.338 199.058 112.341V70.6C199.058 60.721 190.865 52.8 180.852 52.8H108.029L89.823 35H35.2058ZM162.646 124C161.463 124 160.461 124.801 160.279 125.869L158.55 137.617C155.819 138.774 153.179 140.198 150.812 141.8L139.525 137.35C138.523 137.35 137.34 137.35 136.703 138.507L127.6 153.904C127.054 154.883 127.236 156.04 128.146 156.752L137.795 164.05C137.613 165.563 137.522 166.987 137.522 168.5C137.522 170.013 137.613 171.437 137.795 172.95L128.146 180.248C127.327 180.96 127.054 182.117 127.6 183.096L136.703 198.493C137.249 199.65 138.432 199.65 139.525 199.65L150.812 195.2C153.179 196.802 155.728 198.315 158.55 199.383L160.279 211.131C160.461 212.199 161.372 213 162.646 213H180.852C181.853 213 182.854 212.199 183.037 211.131L184.766 199.383C187.497 198.226 189.955 196.802 192.412 195.2L203.609 199.65C204.792 199.65 205.976 199.65 206.613 198.493L215.716 183.096C216.262 182.117 215.989 180.96 215.17 180.248L205.43 172.95C205.612 171.437 205.794 170.013 205.794 168.5C205.794 166.987 205.703 165.563 205.43 164.05L215.079 156.752C215.898 156.04 216.171 154.883 215.625 153.904L206.522 138.507C205.976 137.35 204.792 137.35 203.609 137.35L192.412 141.8C189.955 140.198 187.497 138.685 184.675 137.617L182.945 125.869C182.854 124.801 181.853 124 180.852 124H162.646ZM171.749 155.15C179.304 155.15 185.403 161.113 185.403 168.5C185.403 175.887 179.304 181.85 171.749 181.85C164.103 181.85 158.095 175.887 158.095 168.5C158.095 161.113 164.194 155.15 171.749 155.15Z" fill="black"/>
</g>
<defs>
<clipPath id="clip0_1_18">
<rect width="207" height="207" fill="white"/>
</clipPath>
</defs>
</svg>
