<svg width="81" height="81" viewBox="0 0 81 81" fill="none" xmlns="http://www.w3.org/2000/svg">
<path d="M66.8925 47.25C67.9387 48.7687 69.7275 49.7812 71.7187 49.7812C74.9925 49.7812 77.625 47.1487 77.625 43.875C77.625 40.6012 74.9925 37.9687 71.7187 37.9687C69.7275 37.9687 67.9387 38.9812 66.8925 40.5H64.125C64.125 35.2012 62.4375 30.375 59.4 26.3587L63.9225 21.8362C65.8125 22.1737 67.7362 21.6337 69.1875 20.25C71.4487 17.9212 71.4487 14.175 69.1875 11.8125C66.8587 9.55125 63.1125 9.55125 60.75 11.8125C59.3662 13.2637 58.8263 15.1875 59.1638 17.0775L54.6413 21.6C51.5363 19.2712 47.8912 17.7187 43.875 17.145V12.42C45.3937 11.3737 46.4062 9.585 46.4062 7.59375C46.4062 4.32 43.7737 1.6875 40.5 1.6875C37.2262 1.6875 34.5937 4.32 34.5937 7.59375C34.5937 9.585 35.6062 11.3737 37.125 12.42V17.145C34.0875 17.5837 31.2525 18.5625 28.6875 20.0475L24.9412 14.6812C25.5825 12.9262 25.4137 10.9012 24.2662 9.28125C22.3762 6.615 18.6975 5.94 16.0313 7.83C13.365 9.68625 12.69 13.365 14.58 16.0312C15.7275 17.685 17.55 18.5625 19.4062 18.5625L23.3887 24.2325C21.9375 25.6837 20.79 27.3037 19.8112 29.0925C17.7187 28.2825 15.1875 28.6875 13.5 30.375C11.2388 32.7375 11.2388 36.45 13.5 38.8125C14.4788 39.7237 15.66 40.2637 16.875 40.5C16.875 42.3225 17.1112 44.0775 17.4825 45.765L13.0612 46.9462C11.6437 45.765 9.68625 45.2587 7.72875 45.765C4.59 46.6087 2.727 49.8487 3.5775 53.0212C4.42125 56.16 7.695 58.0162 10.8338 57.1725C12.7575 56.6325 14.2087 55.215 14.8162 53.46L19.9125 52.0762C21.4312 54.7425 23.4562 57.105 25.8187 59.0625L22.1062 65.8125C20.25 66.0825 18.5625 67.1287 17.5837 68.9175C16.0312 71.7862 17.1112 75.3637 19.98 76.9162C22.8487 78.4687 26.4262 77.3887 27.9787 74.52C28.9237 72.765 28.89 70.74 28.0463 69.0862L31.6575 62.4375C34.3912 63.5175 37.3612 64.125 40.5 64.125C40.7025 64.125 40.905 64.125 41.1075 64.125C40.6688 65.0025 40.5 66.015 40.5 67.095C40.77 70.3687 43.605 72.7987 46.845 72.5625C50.085 72.3262 52.5487 69.4575 52.3125 66.2175C52.1775 64.53 51.3338 63.045 50.1188 62.0662C51.705 61.3575 53.2238 60.4462 54.6413 59.4L62.5388 67.2975C62.2013 69.1875 62.7412 71.1112 64.125 72.5625C66.4875 74.8237 70.2 74.8237 72.5625 72.5625C74.925 70.3012 74.8237 66.4875 72.5625 64.125C71.1112 62.7412 69.1875 62.2012 67.2975 62.5387L59.4 54.6412C61.0538 52.4475 62.3362 49.95 63.1462 47.25H66.8925ZM35.4375 40.5C32.6362 40.5 30.375 38.2387 30.375 35.4375C30.375 32.6362 32.6362 30.375 35.4375 30.375C38.2387 30.375 40.5 32.6362 40.5 35.4375C40.5 38.2387 38.2387 40.5 35.4375 40.5ZM47.25 50.625C45.3937 50.625 43.875 49.1062 43.875 47.25C43.875 45.3937 45.3937 43.875 47.25 43.875C49.1062 43.875 50.625 45.3937 50.625 47.25C50.625 49.1062 49.1062 50.625 47.25 50.625Z" fill="black"/>
</svg>
