<svg width="137" height="137" viewBox="0 0 137 137" fill="none" xmlns="http://www.w3.org/2000/svg">
<path d="M68.5 28.5417C63.2012 28.5417 58.1194 30.6467 54.3726 34.3935C50.6258 38.1403 48.5208 43.2221 48.5208 48.5209C48.5208 53.8197 50.6258 58.9015 54.3726 62.6483C58.1194 66.3951 63.2012 68.5001 68.5 68.5001C73.7988 68.5001 78.8806 66.3951 82.6274 62.6483C86.3742 58.9015 88.4792 53.8197 88.4792 48.5209C88.4792 43.2221 86.3742 38.1403 82.6274 34.3935C78.8806 30.6467 73.7988 28.5417 68.5 28.5417ZM68.5 39.9584C70.7709 39.9584 72.9488 40.8605 74.5546 42.4663C76.1604 44.0721 77.0625 46.25 77.0625 48.5209C77.0625 50.7918 76.1604 52.9697 74.5546 54.5755C72.9488 56.1813 70.7709 57.0834 68.5 57.0834C66.2291 57.0834 64.0512 56.1813 62.4454 54.5755C60.8396 52.9697 59.9375 50.7918 59.9375 48.5209C59.9375 46.25 60.8396 44.0721 62.4454 42.4663C64.0512 40.8605 66.2291 39.9584 68.5 39.9584ZM31.3958 45.6667C27.611 45.6667 23.9811 47.1703 21.3048 49.8466C18.6285 52.5229 17.125 56.1527 17.125 59.9376C17.125 65.3034 20.1504 69.9272 24.4888 72.3817C26.5438 73.5234 28.8842 74.2084 31.3958 74.2084C33.9075 74.2084 36.2479 73.5234 38.3029 72.3817C40.415 71.183 42.1846 69.4705 43.4975 67.4155C39.3304 61.9926 37.1042 55.3709 37.1042 48.5209C37.1042 48.0072 37.1042 47.4363 37.1042 46.9226C35.3917 46.1234 33.4508 45.6667 31.3958 45.6667ZM105.604 45.6667C103.549 45.6667 101.608 46.1234 99.8958 46.9226C99.8958 47.4363 99.8958 48.0072 99.8958 48.5209C99.8958 55.3709 97.6696 61.9926 93.5025 67.4155C94.1875 68.5001 94.9296 69.3563 95.7858 70.2126C96.6992 71.0688 97.6125 71.8109 98.6971 72.3817C100.752 73.5234 103.093 74.2084 105.604 74.2084C108.116 74.2084 110.456 73.5234 112.511 72.3817C116.85 69.9272 119.875 65.3034 119.875 59.9376C119.875 56.1527 118.371 52.5229 115.695 49.8466C113.019 47.1703 109.389 45.6667 105.604 45.6667ZM68.5 79.9167C55.1425 79.9167 28.5417 86.5955 28.5417 99.8959V108.458H108.458V99.8959C108.458 86.5955 81.8575 79.9167 68.5 79.9167ZM26.8863 83.0563C15.8692 84.3692 0 89.9634 0 99.8959V108.458H17.125V97.4413C17.125 91.6759 21.0638 86.8809 26.8863 83.0563ZM110.114 83.0563C115.936 86.8809 119.875 91.6759 119.875 97.4413V108.458H137V99.8959C137 89.9634 121.131 84.3692 110.114 83.0563ZM68.5 91.3334C77.2338 91.3334 86.995 94.1876 92.6462 97.0417H44.3538C50.005 94.1876 59.7663 91.3334 68.5 91.3334Z" fill="black"/>
</svg>
