<svg width="80" height="81" viewBox="0 0 80 81" fill="none" xmlns="http://www.w3.org/2000/svg">
<path d="M63.3333 67.5V77.5237H56.6667V67.5H46.6667V60.75H56.6667V50.625H63.3333V60.75H73.3333V67.5H63.3333ZM40 3.375L70 16.875V37.125C70 40.1625 69.6667 43.1325 69.0333 46.0687C66.3333 44.6512 63.3333 43.875 60 43.875C54.6957 43.875 49.6086 46.0085 45.8579 49.8061C42.1071 53.6037 40 58.7544 40 64.125C40 68.715 41.5 72.9675 44.0667 76.3425L40 77.625C22.8 73.3725 10 55.8563 10 37.125V16.875L40 3.375Z" fill="black"/>
</svg>
