<svg width="302" height="305" viewBox="0 0 302 305" fill="none" xmlns="http://www.w3.org/2000/svg">
<path d="M238.905 254.026V291.646H213.822V254.026H176.197V228.692H213.822V190.692H238.905V228.692H276.53V254.026H238.905ZM151.114 13.3591L263.989 64.0258V140.026C263.989 151.426 262.734 162.572 260.352 173.592C250.193 168.272 238.905 165.359 226.364 165.359C206.406 165.359 187.266 173.366 173.154 187.619C159.042 201.872 151.114 221.203 151.114 241.359C151.114 258.586 156.757 274.546 166.414 287.212L151.114 292.026C86.3987 276.066 38.2386 210.326 38.2386 140.026V64.0258L151.114 13.3591Z" fill="white"/>
</svg>
